Coordinates
version=1
nRows=7
nColumns=63
inDegrees=yes

Units are S.I. units (second, meters, Newtons, ...)
If the header above contains a line with 'inDegrees', this indicates whether rotational values are in degrees (yes) or radians (no).

endheader
time	pelvis_tilt	pelvis_list	pelvis_rotation	pelvis_tx	pelvis_ty	pelvis_tz	hip_flexion_r	hip_adduction_r	hip_rotation_r	knee_angle_r	knee_angle_r_beta	ankle_angle_r	subtalar_angle_r	mtp_angle_r	hip_flexion_l	hip_adduction_l	hip_rotation_l	knee_angle_l	knee_angle_l_beta	ankle_angle_l	subtalar_angle_l	mtp_angle_l	L5_S1_Flex_Ext	L5_S1_Lat_Bending	L5_S1_axial_rotation	L4_L5_Flex_Ext	L4_L5_Lat_Bending	L4_L5_axial_rotation	L3_L4_Flex_Ext	L3_L4_Lat_Bending	L3_L4_axial_rotation	L2_L3_Flex_Ext	L2_L3_Lat_Bending	L2_L3_axial_rotation	L1_L2_Flex_Ext	L1_L2_Lat_Bending	L1_L2_axial_rotation	L1_T12_Flex_Ext	L1_T12_Lat_Bending	L1_T12_axial_rotation	Abs_r3	Abs_r2	Abs_r1	Abs_t1	Abs_t2	neck_flexion	neck_bending	neck_rotation	arm_flex_r	arm_add_r	arm_rot_r	elbow_flex_r	pro_sup_r	wrist_flex_r	wrist_dev_r	arm_flex_l	arm_add_l	arm_rot_l	elbow_flex_l	pro_sup_l	wrist_flex_l	wrist_dev_l
      1.48333333	      0.26098649	    -28.69956276	     93.63537113	      0.16649141	      0.38759523	      1.12621650	     51.01234011	     -2.17258111	     -0.32228904	     41.60477752	      0.72614035	     42.84317494	     -6.28447130	      0.00000000	     48.48561852	      1.06748497	     -4.41439430	     35.26326726	      0.61546012	     43.37891392	      6.70432024	      0.00000000	     -0.07730222	     -0.49748575	      0.46785520	     -0.14355796	     -0.66165605	      0.49709615	     -0.12699982	     -1.20958685	      0.49709615	     -0.08834871	     -1.20958685	      0.40937330	     -0.07178284	     -1.01447294	      0.38013235	     -0.04417049	     -0.77060543	      0.35089140	     -0.55216205	     -5.62765829	      2.60207026	      0.00000000	      0.00000000	     16.20522866	      2.00475638	     -3.59393629	     22.72972114	      1.97670275	     12.47484669	    130.95622018	     85.79549785	    -12.10383436	     20.44686361	     29.66618708	      5.83425690	     20.43343726	    117.30066598	     85.89950219	    -12.89855646	     10.42198742
      1.50000000	     -0.65919623	    -28.69922710	     92.78624375	      0.16972172	      0.38708819	      1.12644311	     51.24090529	     -1.96726711	      1.37025310	     41.84455341	      0.73032523	     42.81774815	     -7.71230202	      0.00000000	     48.65168226	      1.19642631	     -5.20569686	     35.46560597	      0.61899160	     43.71968426	      6.98709885	      0.00000000	     -0.08782197	     -0.62404225	      0.51688798	     -0.16309418	     -0.82997619	      0.54919348	     -0.14428272	     -1.51729632	      0.54919348	     -0.10037173	     -1.51729632	      0.45227698	     -0.08155148	     -1.27254695	      0.41997148	     -0.05018147	     -0.96664144	      0.38766598	     -0.62730356	     -7.05929070	      2.87477588	      0.00000000	      0.00000000	     16.72592806	      1.74230018	     -3.74739775	     23.15890018	      2.81498066	     12.59977664	    130.29001940	     86.29494143	    -11.86133657	     20.31791565	     30.70138900	      4.95206179	     21.10099724	    116.99796409	     85.88711763	    -14.32883590	      6.71445964
      1.51666667	     -1.10352998	    -28.82186181	     92.48062201	      0.17242521	      0.38620090	      1.12660887	     51.55297861	     -1.97207357	      1.82651126	     42.10143676	      0.73480869	     43.06557154	     -8.04891287	      0.00000000	     49.24632280	      1.24433435	     -5.45162121	     36.16913200	      0.63127044	     44.11432224	      7.08576213	      0.00000000	     -0.08261080	     -0.70477926	      0.48227362	     -0.15341651	     -0.93735641	      0.51241572	     -0.13572128	     -1.71360028	      0.51241572	     -0.09441588	     -1.71360028	      0.42198942	     -0.07671239	     -1.43718586	      0.39184731	     -0.04720381	     -1.09170307	      0.36170521	     -0.59008067	     -7.97260390	      2.68226118	      0.00000000	      0.00000000	     17.48854879	      1.38162084	     -4.06148813	     23.71193718	      3.44547094	     13.17082255	    129.83558113	     85.74481283	    -12.11842884	     20.92403928	     31.09735013	      4.53227702	     21.04635999	    117.36314153	     86.42631311	    -14.36056852	      5.35450089
      1.53333333	     -2.27435698	    -28.95946113	     91.39336070	      0.17596148	      0.38565646	      1.12628974	     51.93148581	     -1.89138517	      3.53139864	     42.38602682	      0.73977572	     43.01768174	     -9.13207547	      0.00000000	     49.42519430	      1.36299207	     -6.69424918	     36.18544198	      0.63155510	     44.51316915	      7.65347919	      0.00000000	     -0.07409140	     -0.86968955	      0.58675875	     -0.13759515	     -1.15668710	      0.62343118	     -0.12172477	     -2.11456316	      0.62343118	     -0.08467907	     -2.11456316	      0.51341391	     -0.06880128	     -1.77347092	      0.47674149	     -0.04233583	     -1.34714911	      0.44006907	     -0.52922749	     -9.83810208	      3.26337616	      0.00000000	      0.00000000	     18.10291218	      1.63972459	     -4.37078992	     24.02846502	      4.08295111	     13.82540899	    129.62515841	     83.56384260	    -13.21485450	     22.20160315	     31.21245861	      4.36793418	     21.20789107	    116.93996781	     87.55661327	    -14.39947101	      1.06615566
      1.55000000	     -3.08310724	    -29.11863987	     90.64534605	      0.17920709	      0.38487659	      1.12603573	     52.29841800	     -1.77375597	      4.71505195	     42.67613645	      0.74483909	     43.04192600	     -9.89157889	      0.00000000	     49.77027780	      1.35771154	     -7.59179162	     36.47539323	      0.63661571	     44.80238643	      8.02859373	      0.00000000	     -0.06226251	     -1.00058453	      0.66435617	     -0.11562771	     -1.33077743	      0.70587843	     -0.10229108	     -2.43282123	      0.70587843	     -0.07115982	     -2.43282123	      0.58131165	     -0.05781697	     -2.04039197	      0.53978939	     -0.03557680	     -1.54990544	      0.49826713	     -0.44473490	    -11.31881232	      3.69494969	      0.00000000	      0.00000000	     18.82530354	      1.72356962	     -5.23507028	     24.34584747	      4.60253646	     14.50511738	    129.42536536	     81.00706005	    -13.98046380	     23.41942229	     31.16403567	      4.52699765	     21.18828775	    116.71742867	     88.17569518	    -14.39840021	     -1.71604644
      1.56666667	     -3.43846759	    -29.22084753	     90.36566187	      0.18178754	      0.38403125	      1.12576900	     52.52122759	     -1.66710961	      5.24987577	     42.91493735	      0.74900696	     43.15976348	    -10.22345935	      0.00000000	     50.14974408	      1.30484041	     -7.86300017	     36.96930230	      0.64523605	     44.95435259	      8.08162920	      0.00000000	     -0.05296472	     -1.07629301	      0.66981346	     -0.09836078	     -1.43146970	      0.71167680	     -0.08701574	     -2.61689883	      0.71167680	     -0.06053338	     -2.61689883	      0.58608678	     -0.04918304	     -2.19477671	      0.54422344	     -0.03026404	     -1.66717787	      0.50236010	     -0.37832171	    -12.17524179	      3.72530153	      0.00000000	      0.00000000	     19.45196811	      1.70555594	     -5.94078468	     24.78272259	      5.02608966	     15.30640536	    128.99653357	     79.62415658	    -14.31773682	     24.51073664	     31.08770418	      4.81298138	     20.83357016	    116.70405516	     88.61307739	    -14.57501476	     -2.87025029
      1.58333333	     -3.87901061	    -29.20608167	     89.76191666	      0.18458078	      0.38355914	      1.12533416	     52.56572478	     -1.29156604	      6.28135304	     42.99185820	      0.75034948	     43.07147501	    -11.04065938	      0.00000000	     50.21006907	      1.07833068	     -8.49227321	     37.18642453	      0.64902555	     44.96800122	      8.34245804	      0.00000000	     -0.05194264	     -1.16467680	      0.80642031	     -0.09646268	     -1.54902015	      0.85682158	     -0.08533657	     -2.83179518	      0.85682158	     -0.05936525	     -2.83179518	      0.70561777	     -0.04823394	     -2.37500894	      0.65521650	     -0.02968003	     -1.80408437	      0.60481523	     -0.37102111	    -13.17505694	      4.48506784	      0.00000000	      0.00000000	     19.71414652	      1.93646682	     -7.02345023	     25.23731760	      5.14805317	     15.63125633	    128.63682669	     75.91401566	    -14.80730377	     25.62919291	     31.67369531	      4.92669019	     21.10960394	    115.97484455	     88.78366357	    -15.69759898	     -4.66658638
